<?xml version="1.0" standalone="no"?>
<!DOCTYPE svg PUBLIC "-//W3C//DTD SVG 20010904//EN"
 "http://www.w3.org/TR/2001/REC-SVG-20010904/DTD/svg10.dtd">
<svg version="1.0" xmlns="http://www.w3.org/2000/svg"
 width="169.000000pt" height="146.000000pt" viewBox="0 0 169.000000 146.000000"
 preserveAspectRatio="xMidYMid meet">

<g transform="translate(0.000000,146.000000) scale(0.100000,-0.100000)"
fill="#000000" stroke="none">
<path d="M775 1209 c-61 -56 -102 -143 -117 -247 -17 -116 -18 -115 120 -113
62 1 112 0 112 -2 0 -2 -20 -24 -43 -49 -24 -25 -54 -71 -67 -102 -13 -31 -28
-56 -32 -56 -23 0 -108 53 -145 90 -45 45 -85 105 -76 114 4 3 27 6 52 6 31 0
42 3 35 10 -7 7 -67 10 -160 8 l-149 -3 -3 -29 c-4 -33 13 -78 38 -101 16 -15
22 -12 82 40 36 30 68 55 71 55 3 0 17 -20 31 -44 35 -60 115 -130 181 -157
48 -20 55 -26 55 -51 0 -75 82 -174 185 -222 57 -27 214 -62 238 -53 13 5 5
34 -44 163 -32 86 -59 158 -59 160 0 2 19 12 43 22 50 22 105 82 114 122 5 26
12 31 58 41 97 22 99 39 6 59 -43 9 -62 18 -66 31 -10 32 -55 59 -97 59 -32 0
-47 -7 -74 -34 -19 -19 -34 -43 -34 -55 0 -31 19 -25 32 9 10 30 52 60 82 60
8 0 28 -12 45 -26 27 -22 31 -33 31 -73 0 -66 -35 -130 -85 -158 -22 -13 -47
-23 -55 -23 -11 0 -48 87 -125 292 -61 160 -116 293 -122 295 -7 3 -32 -15
-58 -38z m108 -139 c31 -80 60 -157 66 -172 l11 -28 -142 0 -141 0 6 75 c7 90
44 180 100 239 21 22 39 37 41 35 3 -2 29 -69 59 -149z m417 -231 c0 -5 -11
-9 -25 -9 -14 0 -25 6 -25 14 0 9 8 12 25 8 14 -2 25 -8 25 -13z m-840 5 c0
-5 -36 -37 -86 -76 -21 -17 -22 -17 -39 18 -25 54 -16 64 60 64 36 0 65 -3 65
-6z m604 -250 c53 -141 94 -259 91 -262 -11 -11 -142 21 -201 48 -77 37 -148
111 -164 171 -24 89 22 192 119 266 23 18 46 33 50 33 5 0 52 -115 105 -256z"/>
<path d="M560 1050 c0 -5 9 -10 20 -10 11 0 20 5 20 10 0 6 -9 10 -20 10 -11
0 -20 -4 -20 -10z"/>
<path d="M370 970 c0 -5 9 -10 20 -10 11 0 20 5 20 10 0 6 -9 10 -20 10 -11 0
-20 -4 -20 -10z"/>
<path d="M450 970 c0 -6 32 -10 75 -10 43 0 75 4 75 10 0 6 -32 10 -75 10 -43
0 -75 -4 -75 -10z"/>
<path d="M1130 885 c-18 -21 -4 -47 22 -43 29 4 35 34 10 47 -15 8 -23 7 -32
-4z"/>
<path d="M525 500 c-7 -11 -2 -12 45 -12 47 0 52 1 45 12 -3 6 -24 10 -45 10
-21 0 -42 -4 -45 -10z"/>
<path d="M660 501 c0 -11 26 -22 34 -14 12 12 5 23 -14 23 -11 0 -20 -4 -20
-9z"/>
</g>
</svg>
